<?xml version="1.0" encoding="UTF-8" standalone="no"?>
<!-- Created with Inkscape (http://www.inkscape.org/) -->

<svg
   width="210mm"
   height="297mm"
   viewBox="0 0 210 297"
   version="1.1"
   id="svg5"
   inkscape:version="1.1.1 (3bf5ae0d25, 2021-09-20, custom)"
   sodipodi:docname="logo.svg"
   inkscape:export-filename="/home/chuxclub/projects/wip/2021_m1csa_misc_logo/logo2.png"
   inkscape:export-xdpi="96"
   inkscape:export-ydpi="96"
   xmlns:inkscape="http://www.inkscape.org/namespaces/inkscape"
   xmlns:sodipodi="http://sodipodi.sourceforge.net/DTD/sodipodi-0.dtd"
   xmlns="http://www.w3.org/2000/svg"
   xmlns:svg="http://www.w3.org/2000/svg">
  <sodipodi:namedview
     id="namedview7"
     pagecolor="#ffffff"
     bordercolor="#666666"
     borderopacity="1.0"
     inkscape:pageshadow="2"
     inkscape:pageopacity="0.0"
     inkscape:pagecheckerboard="0"
     inkscape:document-units="mm"
     showgrid="false"
     inkscape:snap-global="false"
     inkscape:zoom="1.5737471"
     inkscape:cx="313.26507"
     inkscape:cy="510.24716"
     inkscape:window-width="1920"
     inkscape:window-height="1051"
     inkscape:window-x="0"
     inkscape:window-y="0"
     inkscape:window-maximized="1"
     inkscape:current-layer="layer1">
    <inkscape:grid
       type="xygrid"
       id="grid137" />
  </sodipodi:namedview>
  <defs
     id="defs2">
    <inkscape:path-effect
       effect="bspline"
       id="path-effect5923"
       is_visible="true"
       lpeversion="1"
       weight="33.333333"
       steps="2"
       helper_size="0"
       apply_no_weight="true"
       apply_with_weight="true"
       only_selected="false" />
    <rect
       x="236.96153"
       y="496.53685"
       width="314.16237"
       height="171.28111"
       id="rect3022" />
    <clipPath
       clipPathUnits="userSpaceOnUse"
       id="clipPath12492">
      <path
         id="path12494"
         style="fill:#000080;fill-rule:evenodd;stroke-width:0.244222"
         d="M 97.400256,89.877717 A 50.000001,50.000001 0 0 0 47.400207,139.87777 50.000001,50.000001 0 0 0 97.400256,189.87781 50.000001,50.000001 0 0 0 147.4003,139.87777 50.000001,50.000001 0 0 0 97.400256,89.877717 Z" />
    </clipPath>
  </defs>
  <g
     inkscape:label="Layer 1"
     inkscape:groupmode="layer"
     id="layer1">
    <path
       id="path55"
       style="fill:#001923;fill-rule:evenodd;stroke-width:0.923044;fill-opacity:1"
       d="M 368.12695 339.69531 A 188.97638 188.97638 0 0 0 179.15039 528.67188 A 188.97638 188.97638 0 0 0 368.12695 717.64844 A 188.97638 188.97638 0 0 0 557.10352 528.67188 A 188.97638 188.97638 0 0 0 368.12695 339.69531 z "
       transform="scale(0.26458333)" />
    <text
       xml:space="preserve"
       transform="matrix(0.26458333,0,0,0.26458333,4.3786204,0.35434944)"
       id="text3020"
       style="font-style:normal;font-weight:normal;font-size:120px;line-height:1.25;font-family:sans-serif;white-space:pre;shape-inside:url(#rect3022);fill:#000000;fill-opacity:1;stroke:none"><tspan
         x="236.96094"
         y="599.01711"
         id="tspan12917"><tspan
           style="font-size:106.667px;font-family:'Helvetica Neue';-inkscape-font-specification:'Helvetica Neue';fill:#ffffff"
           id="tspan12915">CSA</tspan></tspan></text>
    <g
       id="g5733"
       transform="matrix(0.93425899,0,0,0.91978996,33.384356,68.17133)">
      <path
         sodipodi:type="star"
         style="fill:#ffcc00"
         id="path5422"
         inkscape:flatsided="true"
         sodipodi:sides="6"
         sodipodi:cx="251.92586"
         sodipodi:cy="112.1644"
         sodipodi:r1="34.362904"
         sodipodi:r2="29.759148"
         sodipodi:arg1="0.51816009"
         sodipodi:arg2="1.0417589"
         inkscape:rounded="0"
         inkscape:randomized="0"
         transform="matrix(0.13028937,0.10636296,-0.10636296,0.13028937,68.481536,11.470677)"
         d="m 281.77801,129.18375 -29.66526,17.34304 -29.85216,-17.01934 -0.18688,-34.3624 29.66526,-17.343047 29.85215,17.019348 z" />
      <rect
         style="fill:#ffcc00;stroke-width:0.168191"
         id="rect5526"
         width="18.038979"
         height="6.6339593"
         x="110.48571"
         y="-19.025928"
         transform="rotate(39.226807)" />
      <rect
         style="fill:#ffcc00;stroke-width:0.168191"
         id="rect5526-3"
         width="18.038979"
         height="6.6339593"
         x="77.106178"
         y="-18.690302"
         transform="rotate(39.226807)" />
    </g>
    <path
       style="fill:#ff0000;stroke:none;stroke-width:0.291018px;stroke-linecap:butt;stroke-linejoin:miter;stroke-opacity:1"
       d="m 64.684444,148.66455 c -0.0076,-3.78173 -0.0227,-11.34528 11.088149,-17.0482 11.110849,-5.70292 33.346187,-9.5444 35.157317,-10.82987 1.81113,-1.28547 -16.802557,-0.0148 -29.071598,3.11964 -12.269041,3.1344 -18.192607,8.13225 -20.804537,12.75741 -2.611929,4.62517 -1.912166,8.87721 -0.753682,11.44551 1.158483,2.56831 2.775338,3.45285 3.583627,3.89504 0.808288,0.44219 0.80829,0.44219 0.800724,-3.33953 z"
       id="path5921"
       inkscape:path-effect="#path-effect5923"
       inkscape:original-d="m 64.69201,152.44627 c -0.01487,-7.56345 -0.03,-15.127 -0.0454,-22.6911 22.236884,-3.84144 44.47222,-7.68292 66.70863,-11.5249 -18.61418,1.27102 -37.227868,2.54173 -55.842158,3.81219 -5.923571,4.99834 -11.847137,9.99619 -17.771057,14.99385 0.700036,4.25235 1.399799,8.50439 2.099321,12.7563 1.617181,0.88483 3.234034,1.76937 4.850662,2.65366 z"
       sodipodi:nodetypes="cccccccc" />
    <path
       sodipodi:type="star"
       style="fill:#ffffff;stroke:none"
       id="path11948"
       inkscape:flatsided="false"
       sodipodi:sides="6"
       sodipodi:cx="270.09265"
       sodipodi:cy="418.96628"
       sodipodi:r1="6.2409444"
       sodipodi:r2="3.1204722"
       sodipodi:arg1="0.94068192"
       sodipodi:arg2="1.4642807"
       inkscape:rounded="0"
       inkscape:randomized="0"
       d="m 273.77005,424.00871 -3.34565,-1.93964 -2.85993,2.60314 0.007,-3.86723 -3.68435,-1.1752 3.3526,-1.92759 -0.82443,-3.77835 3.34565,1.93965 2.85993,-2.60315 -0.007,3.86724 3.68436,1.1752 -3.35261,1.92759 z"
       transform="scale(0.26458333)"
       inkscape:transform-center-y="-1.3965543e-06" />
    <path
       sodipodi:type="star"
       style="fill:#ffffff;stroke:none"
       id="path11948-6"
       inkscape:flatsided="false"
       sodipodi:sides="6"
       sodipodi:cx="270.09265"
       sodipodi:cy="418.96628"
       sodipodi:r1="6.2409444"
       sodipodi:r2="3.1204722"
       sodipodi:arg1="0.94068192"
       sodipodi:arg2="1.4642807"
       inkscape:rounded="0"
       inkscape:randomized="0"
       transform="matrix(0.26458333,0,0,0.26458333,20.501353,4.144745)"
       inkscape:transform-center-y="-1.3965543e-06"
       d="m 273.77005,424.00871 -3.34565,-1.93964 -2.85993,2.60314 0.007,-3.86723 -3.68435,-1.1752 3.3526,-1.92759 -0.82443,-3.77835 3.34565,1.93965 2.85993,-2.60315 -0.007,3.86724 3.68436,1.1752 -3.35261,1.92759 z" />
    <path
       sodipodi:type="star"
       style="fill:#ffffff;stroke:none"
       id="path11948-7"
       inkscape:flatsided="false"
       sodipodi:sides="6"
       sodipodi:cx="270.09265"
       sodipodi:cy="418.96628"
       sodipodi:r1="6.2409444"
       sodipodi:r2="3.1204722"
       sodipodi:arg1="0.94068192"
       sodipodi:arg2="1.4642807"
       inkscape:rounded="0"
       inkscape:randomized="0"
       transform="matrix(0.26458333,0,0,0.26458333,46.392319,18.77146)"
       inkscape:transform-center-y="-1.3965543e-06"
       d="m 273.77005,424.00871 -3.34565,-1.93964 -2.85993,2.60314 0.007,-3.86723 -3.68435,-1.1752 3.3526,-1.92759 -0.82443,-3.77835 3.34565,1.93965 2.85993,-2.60315 -0.007,3.86724 3.68436,1.1752 -3.35261,1.92759 z" />
    <path
       sodipodi:type="star"
       style="fill:#ffffff;stroke:none"
       id="path11948-5"
       inkscape:flatsided="false"
       sodipodi:sides="6"
       sodipodi:cx="270.09265"
       sodipodi:cy="418.96628"
       sodipodi:r1="6.2409444"
       sodipodi:r2="3.1204722"
       sodipodi:arg1="0.94068192"
       sodipodi:arg2="1.4642807"
       inkscape:rounded="0"
       inkscape:randomized="0"
       transform="matrix(0.26458333,0,0,0.26458333,-9.9289384,15.57712)"
       inkscape:transform-center-y="-1.3965543e-06"
       d="m 273.77005,424.00871 -3.34565,-1.93964 -2.85993,2.60314 0.007,-3.86723 -3.68435,-1.1752 3.3526,-1.92759 -0.82443,-3.77835 3.34565,1.93965 2.85993,-2.60315 -0.007,3.86724 3.68436,1.1752 -3.35261,1.92759 z" />
    <path
       sodipodi:type="star"
       style="fill:#ffffff;stroke:none"
       id="path11948-3"
       inkscape:flatsided="false"
       sodipodi:sides="6"
       sodipodi:cx="270.09265"
       sodipodi:cy="418.96628"
       sodipodi:r1="6.2409444"
       sodipodi:r2="3.1204722"
       sodipodi:arg1="0.94068192"
       sodipodi:arg2="1.4642807"
       inkscape:rounded="0"
       inkscape:randomized="0"
       transform="matrix(0.26458333,0,0,0.26458333,43.995096,-8.4955884)"
       inkscape:transform-center-y="-1.3965543e-06"
       d="m 273.77005,424.00871 -3.34565,-1.93964 -2.85993,2.60314 0.007,-3.86723 -3.68435,-1.1752 3.3526,-1.92759 -0.82443,-3.77835 3.34565,1.93965 2.85993,-2.60315 -0.007,3.86724 3.68436,1.1752 -3.35261,1.92759 z" />
    <path
       sodipodi:type="star"
       style="fill:#ffffff;stroke:none"
       id="path11948-56"
       inkscape:flatsided="false"
       sodipodi:sides="6"
       sodipodi:cx="270.09265"
       sodipodi:cy="418.96628"
       sodipodi:r1="6.2409444"
       sodipodi:r2="3.1204722"
       sodipodi:arg1="0.94068192"
       sodipodi:arg2="1.4642807"
       inkscape:rounded="0"
       inkscape:randomized="0"
       transform="matrix(0.26458333,0,0,0.26458333,15.404514,-11.196559)"
       inkscape:transform-center-y="-1.3965543e-06"
       d="m 273.77005,424.00871 -3.34565,-1.93964 -2.85993,2.60314 0.007,-3.86723 -3.68435,-1.1752 3.3526,-1.92759 -0.82443,-3.77835 3.34565,1.93965 2.85993,-2.60315 -0.007,3.86724 3.68436,1.1752 -3.35261,1.92759 z" />
    <path
       sodipodi:type="star"
       style="fill:#ffffff;stroke:none"
       id="path11948-79"
       inkscape:flatsided="false"
       sodipodi:sides="6"
       sodipodi:cx="270.09265"
       sodipodi:cy="418.96628"
       sodipodi:r1="6.2409444"
       sodipodi:r2="3.1204722"
       sodipodi:arg1="0.94068192"
       sodipodi:arg2="1.4642807"
       inkscape:rounded="0"
       inkscape:randomized="0"
       transform="matrix(0.26458333,0,0,0.26458333,23.527569,20.957061)"
       inkscape:transform-center-y="-1.3965543e-06"
       d="m 273.77005,424.00871 -3.34565,-1.93964 -2.85993,2.60314 0.007,-3.86723 -3.68435,-1.1752 3.3526,-1.92759 -0.82443,-3.77835 3.34565,1.93965 2.85993,-2.60315 -0.007,3.86724 3.68436,1.1752 -3.35261,1.92759 z" />
    <path
       sodipodi:type="star"
       style="fill:#ffffff;stroke:none"
       id="path11948-0"
       inkscape:flatsided="false"
       sodipodi:sides="6"
       sodipodi:cx="270.09265"
       sodipodi:cy="418.96628"
       sodipodi:r1="6.2409444"
       sodipodi:r2="3.1204722"
       sodipodi:arg1="0.94068192"
       sodipodi:arg2="1.4642807"
       inkscape:rounded="0"
       inkscape:randomized="0"
       transform="matrix(0.26458333,0,0,0.26458333,67.377504,31.300196)"
       inkscape:transform-center-y="-1.3965543e-06"
       d="m 273.77005,424.00871 -3.34565,-1.93964 -2.85993,2.60314 0.007,-3.86723 -3.68435,-1.1752 3.3526,-1.92759 -0.82443,-3.77835 3.34565,1.93965 2.85993,-2.60315 -0.007,3.86724 3.68436,1.1752 -3.35261,1.92759 z" />
    <path
       sodipodi:type="star"
       style="fill:#ffffff;stroke:none"
       id="path11948-0-7"
       inkscape:flatsided="false"
       sodipodi:sides="6"
       sodipodi:cx="270.09265"
       sodipodi:cy="418.96628"
       sodipodi:r1="6.2409444"
       sodipodi:r2="3.1204722"
       sodipodi:arg1="0.94068192"
       sodipodi:arg2="1.4642807"
       inkscape:rounded="0"
       inkscape:randomized="0"
       transform="matrix(0.26458333,0,0,0.26458333,60.67387,3.7784024)"
       inkscape:transform-center-y="-1.3965543e-06"
       d="m 273.77005,424.00871 -3.34565,-1.93964 -2.85993,2.60314 0.007,-3.86723 -3.68435,-1.1752 3.3526,-1.92759 -0.82443,-3.77835 3.34565,1.93965 2.85993,-2.60315 -0.007,3.86724 3.68436,1.1752 -3.35261,1.92759 z" />
    <path
       sodipodi:type="star"
       style="fill:#ffffff;stroke:none"
       id="path11948-2"
       inkscape:flatsided="false"
       sodipodi:sides="6"
       sodipodi:cx="270.09265"
       sodipodi:cy="418.96628"
       sodipodi:r1="6.2409444"
       sodipodi:r2="3.1204722"
       sodipodi:arg1="0.94068192"
       sodipodi:arg2="1.4642807"
       inkscape:rounded="0"
       inkscape:randomized="0"
       transform="matrix(0.26458333,0,0,0.26458333,-19.007589,29.699465)"
       inkscape:transform-center-y="-1.3965543e-06"
       d="m 273.77005,424.00871 -3.34565,-1.93964 -2.85993,2.60314 0.007,-3.86723 -3.68435,-1.1752 3.3526,-1.92759 -0.82443,-3.77835 3.34565,1.93965 2.85993,-2.60315 -0.007,3.86724 3.68436,1.1752 -3.35261,1.92759 z" />
    <ellipse
       style="fill:#0000ff;stroke:none;stroke-width:0.262322"
       id="path12266-3"
       ry="12.651011"
       rx="41.172302"
       cy="177.08221"
       cx="97.867996"
       clip-path="url(#clipPath12492)"
       transform="translate(-0.03522942,-0.66145752)" />
  </g>
</svg>
