<?xml version="1.0" encoding="UTF-8" standalone="no"?>
<!-- Created with Inkscape (http://www.inkscape.org/) -->

<svg
   width="140mm"
   height="140mm"
   viewBox="0 0 140 140"
   version="1.1"
   id="svg5"
   inkscape:version="1.1.1 (3bf5ae0d25, 2021-09-20, custom)"
   sodipodi:docname="logo3b.svg"
   inkscape:export-filename="/home/chuxclub/projects/wip/2021_m1csa_misc_logo/logo3b.png"
   inkscape:export-xdpi="96"
   inkscape:export-ydpi="96"
   xmlns:inkscape="http://www.inkscape.org/namespaces/inkscape"
   xmlns:sodipodi="http://sodipodi.sourceforge.net/DTD/sodipodi-0.dtd"
   xmlns:xlink="http://www.w3.org/1999/xlink"
   xmlns="http://www.w3.org/2000/svg"
   xmlns:svg="http://www.w3.org/2000/svg">
  <sodipodi:namedview
     id="namedview7"
     pagecolor="#ff00ff"
     bordercolor="#666666"
     borderopacity="1.0"
     inkscape:pageshadow="2"
     inkscape:pageopacity="0"
     inkscape:pagecheckerboard="false"
     inkscape:document-units="mm"
     showgrid="false"
     inkscape:snap-global="false"
     inkscape:zoom="1.270525"
     inkscape:cx="232.58102"
     inkscape:cy="235.33579"
     inkscape:window-width="1920"
     inkscape:window-height="1051"
     inkscape:window-x="0"
     inkscape:window-y="0"
     inkscape:window-maximized="1"
     inkscape:current-layer="layer1"
     inkscape:snap-object-midpoints="true"
     inkscape:object-nodes="false"
     inkscape:snap-nodes="true"
     inkscape:snap-grids="true"
     inkscape:snap-to-guides="false"
     fit-margin-top="5"
     fit-margin-left="5"
     fit-margin-right="5"
     fit-margin-bottom="5">
    <inkscape:grid
       type="xygrid"
       id="grid137"
       originx="-27.81833"
       originy="-69.665089" />
  </sodipodi:namedview>
  <defs
     id="defs2">
    <rect
       x="690.03082"
       y="558.84546"
       width="396.88144"
       height="50.953018"
       id="rect58159" />
    <rect
       x="540.67401"
       y="197.82356"
       width="215.02364"
       height="76.815765"
       id="rect28579" />
    <inkscape:path-effect
       effect="bspline"
       id="path-effect5923"
       is_visible="true"
       lpeversion="1"
       weight="33.333333"
       steps="2"
       helper_size="0"
       apply_no_weight="true"
       apply_with_weight="true"
       only_selected="false" />
    <rect
       x="236.96153"
       y="496.53687"
       width="314.16238"
       height="171.28111"
       id="rect3022" />
    <clipPath
       clipPathUnits="userSpaceOnUse"
       id="clipPath12492">
      <path
         id="path12494"
         style="fill:#000080;fill-rule:evenodd;stroke-width:0.244222"
         d="M 97.400256,89.877717 A 50.000001,50.000001 0 0 0 47.400207,139.87777 50.000001,50.000001 0 0 0 97.400256,189.87781 50.000001,50.000001 0 0 0 147.4003,139.87777 50.000001,50.000001 0 0 0 97.400256,89.877717 Z" />
    </clipPath>
    <clipPath
       clipPathUnits="userSpaceOnUse"
       id="clipPath47731">
      <path
         d="M -2.007874e-7,1.2598426e-7 V 30 H 59.999999 V 1.2598426e-7 Z"
         fill="#012169"
         id="path47733"
         style="stroke-width:1" />
    </clipPath>
    <clipPath
       clipPathUnits="userSpaceOnUse"
       id="clipPath51320">
      <rect
         style="fill:#000080;stroke:none;stroke-width:0.369288;stroke-miterlimit:4;stroke-dasharray:none;stroke-opacity:1"
         id="rect51322"
         width="6.69173"
         height="3.3824892"
         x="15.065709"
         y="55.323586" />
    </clipPath>
    <clipPath
       clipPathUnits="userSpaceOnUse"
       id="clipPath12492-3">
      <path
         id="path12494-6"
         style="fill:#000080;fill-rule:evenodd;stroke-width:0.244222"
         d="M 97.400256,89.877717 A 50.000001,50.000001 0 0 0 47.400207,139.87777 50.000001,50.000001 0 0 0 97.400256,189.87781 50.000001,50.000001 0 0 0 147.4003,139.87777 50.000001,50.000001 0 0 0 97.400256,89.877717 Z" />
    </clipPath>
    <clipPath
       clipPathUnits="userSpaceOnUse"
       id="clipPath12492-3-5">
      <path
         id="path12494-6-3"
         style="fill:#000080;fill-rule:evenodd;stroke-width:0.244222"
         d="M 97.400256,89.877717 A 50.000001,50.000001 0 0 0 47.400207,139.87777 50.000001,50.000001 0 0 0 97.400256,189.87781 50.000001,50.000001 0 0 0 147.4003,139.87777 50.000001,50.000001 0 0 0 97.400256,89.877717 Z" />
    </clipPath>
    <clipPath
       clipPathUnits="userSpaceOnUse"
       id="clipPath51320-6">
      <rect
         style="fill:#000080;stroke:none;stroke-width:0.369288;stroke-miterlimit:4;stroke-dasharray:none;stroke-opacity:1"
         id="rect51322-2"
         width="6.69173"
         height="3.3824892"
         x="15.065709"
         y="55.323586" />
    </clipPath>
    <clipPath
       clipPathUnits="userSpaceOnUse"
       id="clipPath47731-9">
      <path
         d="M -2.007874e-7,1.2598426e-7 V 30 H 59.999999 V 1.2598426e-7 Z"
         fill="#012169"
         id="path47733-1"
         style="stroke-width:1" />
    </clipPath>
    <g
       id="s">
      <g
         id="c">
        <path
           id="t"
           d="M0,0v1h0.5z"
           transform="translate(0,-1)rotate(18)" />
        <use
           xlink:href="#t"
           transform="scale(-1,1)"
           id="use8583" />
      </g>
      <g
         id="a">
        <use
           xlink:href="#c"
           transform="rotate(72)"
           id="use8586" />
        <use
           xlink:href="#c"
           transform="rotate(144)"
           id="use8588" />
      </g>
      <use
         xlink:href="#a"
         transform="scale(-1,1)"
         id="use8591" />
    </g>
  </defs>
  <g
     inkscape:label="Layer 1"
     inkscape:groupmode="layer"
     id="layer1"
     transform="translate(-27.81834,-69.665098)">
    <g
       id="g1289"
       transform="translate(0.41808438,-0.21266616)"
       inkscape:export-filename="/home/chuxclub/projects/wip/2021_m1csa_misc_logo/logo3b.png"
       inkscape:export-xdpi="96"
       inkscape:export-ydpi="96"
       style="stroke:none">
      <path
         id="path55"
         style="fill:#001923;fill-opacity:1;fill-rule:evenodd;stroke:none;stroke-width:1.88976;stroke-miterlimit:4;stroke-dasharray:none;stroke-opacity:1"
         d="M 368.12695,339.69531 A 188.97638,188.97638 0 0 0 179.15039,528.67188 188.97638,188.97638 0 0 0 368.12695,717.64844 188.97638,188.97638 0 0 0 557.10352,528.67188 188.97638,188.97638 0 0 0 368.12695,339.69531 Z"
         transform="scale(0.26458333)" />
    </g>
    <text
       xml:space="preserve"
       transform="matrix(0.26458333,0,0,0.26458333,4.3786204,0.35434944)"
       id="text3020"
       style="font-style:normal;font-weight:normal;font-size:120px;line-height:1.25;font-family:sans-serif;white-space:pre;shape-inside:url(#rect3022);fill:#000000;fill-opacity:1;stroke:none"
       inkscape:export-filename="/home/chuxclub/projects/wip/2021_m1csa_misc_logo/logo3.png"
       inkscape:export-xdpi="96"
       inkscape:export-ydpi="96"><tspan
         x="236.96094"
         y="599.01711"
         id="tspan931"><tspan
           style="font-size:106.667px;font-family:'Helvetica Neue';-inkscape-font-specification:'Helvetica Neue';fill:#ffffff"
           id="tspan929">CSA</tspan></tspan></text>
    <g
       id="g5733"
       transform="matrix(0.93425899,0,0,0.91978996,33.384356,68.17133)"
       inkscape:export-filename="/home/chuxclub/projects/wip/2021_m1csa_misc_logo/logo3.png"
       inkscape:export-xdpi="96"
       inkscape:export-ydpi="96">
      <path
         sodipodi:type="star"
         style="fill:#ffcc00"
         id="path5422"
         inkscape:flatsided="true"
         sodipodi:sides="6"
         sodipodi:cx="251.92586"
         sodipodi:cy="112.1644"
         sodipodi:r1="34.362904"
         sodipodi:r2="29.759148"
         sodipodi:arg1="0.51816009"
         sodipodi:arg2="1.0417589"
         inkscape:rounded="0"
         inkscape:randomized="0"
         transform="matrix(0.13028937,0.10636296,-0.10636296,0.13028937,68.481536,11.470677)"
         d="m 281.77801,129.18375 -29.66526,17.34304 -29.85216,-17.01934 -0.18688,-34.3624 29.66526,-17.343047 29.85215,17.019348 z" />
      <rect
         style="fill:#ffcc00;stroke-width:0.168191"
         id="rect5526"
         width="18.038979"
         height="6.6339593"
         x="110.48571"
         y="-19.025928"
         transform="rotate(39.226807)" />
      <rect
         style="fill:#ffcc00;stroke-width:0.168191"
         id="rect5526-3"
         width="18.038979"
         height="6.6339593"
         x="77.106178"
         y="-18.690302"
         transform="rotate(39.226807)" />
    </g>
    <path
       style="fill:#ff0000;stroke:none;stroke-width:0.291018px;stroke-linecap:butt;stroke-linejoin:miter;stroke-opacity:1"
       d="m 64.684444,148.66455 c -0.0076,-3.78173 -0.0227,-11.34528 11.088149,-17.0482 11.110849,-5.70292 33.346187,-9.5444 35.157317,-10.82987 1.81113,-1.28547 -16.802557,-0.0148 -29.071598,3.11964 -12.269041,3.1344 -18.192607,8.13225 -20.804537,12.75741 -2.611929,4.62517 -1.912166,8.87721 -0.753682,11.44551 1.158483,2.56831 2.775338,3.45285 3.583627,3.89504 0.808288,0.44219 0.80829,0.44219 0.800724,-3.33953 z"
       id="path5921"
       inkscape:path-effect="#path-effect5923"
       inkscape:original-d="m 64.69201,152.44627 c -0.01487,-7.56345 -0.03,-15.127 -0.0454,-22.6911 22.236884,-3.84144 44.47222,-7.68292 66.70863,-11.5249 -18.61418,1.27102 -37.227868,2.54173 -55.842158,3.81219 -5.923571,4.99834 -11.847137,9.99619 -17.771057,14.99385 0.700036,4.25235 1.399799,8.50439 2.099321,12.7563 1.617181,0.88483 3.234034,1.76937 4.850662,2.65366 z"
       sodipodi:nodetypes="cccccccc"
       inkscape:export-filename="/home/chuxclub/projects/wip/2021_m1csa_misc_logo/logo3.png"
       inkscape:export-xdpi="96"
       inkscape:export-ydpi="96" />
    <path
       sodipodi:type="star"
       style="fill:#ffffff;stroke:none"
       id="path11948"
       inkscape:flatsided="false"
       sodipodi:sides="6"
       sodipodi:cx="270.09265"
       sodipodi:cy="418.96628"
       sodipodi:r1="6.2409444"
       sodipodi:r2="3.1204722"
       sodipodi:arg1="0.94068192"
       sodipodi:arg2="1.4642807"
       inkscape:rounded="0"
       inkscape:randomized="0"
       d="m 273.77005,424.00871 -3.34565,-1.93964 -2.85993,2.60314 0.007,-3.86723 -3.68435,-1.1752 3.3526,-1.92759 -0.82443,-3.77835 3.34565,1.93965 2.85993,-2.60315 -0.007,3.86724 3.68436,1.1752 -3.35261,1.92759 z"
       transform="scale(0.26458333)"
       inkscape:transform-center-y="-1.3965543e-06"
       inkscape:export-filename="/home/chuxclub/projects/wip/2021_m1csa_misc_logo/logo3.png"
       inkscape:export-xdpi="96"
       inkscape:export-ydpi="96" />
    <path
       sodipodi:type="star"
       style="fill:#ffffff;stroke:none"
       id="path11948-6"
       inkscape:flatsided="false"
       sodipodi:sides="6"
       sodipodi:cx="270.09265"
       sodipodi:cy="418.96628"
       sodipodi:r1="6.2409444"
       sodipodi:r2="3.1204722"
       sodipodi:arg1="0.94068192"
       sodipodi:arg2="1.4642807"
       inkscape:rounded="0"
       inkscape:randomized="0"
       transform="matrix(0.26458333,0,0,0.26458333,20.501353,4.144745)"
       inkscape:transform-center-y="-1.3965543e-06"
       d="m 273.77005,424.00871 -3.34565,-1.93964 -2.85993,2.60314 0.007,-3.86723 -3.68435,-1.1752 3.3526,-1.92759 -0.82443,-3.77835 3.34565,1.93965 2.85993,-2.60315 -0.007,3.86724 3.68436,1.1752 -3.35261,1.92759 z"
       inkscape:export-filename="/home/chuxclub/projects/wip/2021_m1csa_misc_logo/logo3.png"
       inkscape:export-xdpi="96"
       inkscape:export-ydpi="96" />
    <path
       sodipodi:type="star"
       style="fill:#ffffff;stroke:none"
       id="path11948-7"
       inkscape:flatsided="false"
       sodipodi:sides="6"
       sodipodi:cx="270.09265"
       sodipodi:cy="418.96628"
       sodipodi:r1="6.2409444"
       sodipodi:r2="3.1204722"
       sodipodi:arg1="0.94068192"
       sodipodi:arg2="1.4642807"
       inkscape:rounded="0"
       inkscape:randomized="0"
       transform="matrix(0.26458333,0,0,0.26458333,46.392319,18.77146)"
       inkscape:transform-center-y="-1.3965543e-06"
       d="m 273.77005,424.00871 -3.34565,-1.93964 -2.85993,2.60314 0.007,-3.86723 -3.68435,-1.1752 3.3526,-1.92759 -0.82443,-3.77835 3.34565,1.93965 2.85993,-2.60315 -0.007,3.86724 3.68436,1.1752 -3.35261,1.92759 z"
       inkscape:export-filename="/home/chuxclub/projects/wip/2021_m1csa_misc_logo/logo3.png"
       inkscape:export-xdpi="96"
       inkscape:export-ydpi="96" />
    <path
       sodipodi:type="star"
       style="fill:#ffffff;stroke:none"
       id="path11948-5"
       inkscape:flatsided="false"
       sodipodi:sides="6"
       sodipodi:cx="270.09265"
       sodipodi:cy="418.96628"
       sodipodi:r1="6.2409444"
       sodipodi:r2="3.1204722"
       sodipodi:arg1="0.94068192"
       sodipodi:arg2="1.4642807"
       inkscape:rounded="0"
       inkscape:randomized="0"
       transform="matrix(0.26458333,0,0,0.26458333,-9.9289384,15.57712)"
       inkscape:transform-center-y="-1.3965543e-06"
       d="m 273.77005,424.00871 -3.34565,-1.93964 -2.85993,2.60314 0.007,-3.86723 -3.68435,-1.1752 3.3526,-1.92759 -0.82443,-3.77835 3.34565,1.93965 2.85993,-2.60315 -0.007,3.86724 3.68436,1.1752 -3.35261,1.92759 z"
       inkscape:export-filename="/home/chuxclub/projects/wip/2021_m1csa_misc_logo/logo3.png"
       inkscape:export-xdpi="96"
       inkscape:export-ydpi="96" />
    <path
       sodipodi:type="star"
       style="fill:#ffffff;stroke:none"
       id="path11948-3"
       inkscape:flatsided="false"
       sodipodi:sides="6"
       sodipodi:cx="270.09265"
       sodipodi:cy="418.96628"
       sodipodi:r1="6.2409444"
       sodipodi:r2="3.1204722"
       sodipodi:arg1="0.94068192"
       sodipodi:arg2="1.4642807"
       inkscape:rounded="0"
       inkscape:randomized="0"
       transform="matrix(0.26458333,0,0,0.26458333,43.995096,-8.4955884)"
       inkscape:transform-center-y="-1.3965543e-06"
       d="m 273.77005,424.00871 -3.34565,-1.93964 -2.85993,2.60314 0.007,-3.86723 -3.68435,-1.1752 3.3526,-1.92759 -0.82443,-3.77835 3.34565,1.93965 2.85993,-2.60315 -0.007,3.86724 3.68436,1.1752 -3.35261,1.92759 z"
       inkscape:export-filename="/home/chuxclub/projects/wip/2021_m1csa_misc_logo/logo3.png"
       inkscape:export-xdpi="96"
       inkscape:export-ydpi="96" />
    <path
       sodipodi:type="star"
       style="fill:#ffffff;stroke:none"
       id="path11948-56"
       inkscape:flatsided="false"
       sodipodi:sides="6"
       sodipodi:cx="270.09265"
       sodipodi:cy="418.96628"
       sodipodi:r1="6.2409444"
       sodipodi:r2="3.1204722"
       sodipodi:arg1="0.94068192"
       sodipodi:arg2="1.4642807"
       inkscape:rounded="0"
       inkscape:randomized="0"
       transform="matrix(0.26458333,0,0,0.26458333,15.404514,-11.196559)"
       inkscape:transform-center-y="-1.3965543e-06"
       d="m 273.77005,424.00871 -3.34565,-1.93964 -2.85993,2.60314 0.007,-3.86723 -3.68435,-1.1752 3.3526,-1.92759 -0.82443,-3.77835 3.34565,1.93965 2.85993,-2.60315 -0.007,3.86724 3.68436,1.1752 -3.35261,1.92759 z"
       inkscape:export-filename="/home/chuxclub/projects/wip/2021_m1csa_misc_logo/logo3.png"
       inkscape:export-xdpi="96"
       inkscape:export-ydpi="96" />
    <path
       sodipodi:type="star"
       style="fill:#ffffff;stroke:none"
       id="path11948-79"
       inkscape:flatsided="false"
       sodipodi:sides="6"
       sodipodi:cx="270.09265"
       sodipodi:cy="418.96628"
       sodipodi:r1="6.2409444"
       sodipodi:r2="3.1204722"
       sodipodi:arg1="0.94068192"
       sodipodi:arg2="1.4642807"
       inkscape:rounded="0"
       inkscape:randomized="0"
       transform="matrix(0.26458333,0,0,0.26458333,23.527569,20.957061)"
       inkscape:transform-center-y="-1.3965543e-06"
       d="m 273.77005,424.00871 -3.34565,-1.93964 -2.85993,2.60314 0.007,-3.86723 -3.68435,-1.1752 3.3526,-1.92759 -0.82443,-3.77835 3.34565,1.93965 2.85993,-2.60315 -0.007,3.86724 3.68436,1.1752 -3.35261,1.92759 z"
       inkscape:export-filename="/home/chuxclub/projects/wip/2021_m1csa_misc_logo/logo3.png"
       inkscape:export-xdpi="96"
       inkscape:export-ydpi="96" />
    <path
       sodipodi:type="star"
       style="fill:#ffffff;stroke:none"
       id="path11948-0"
       inkscape:flatsided="false"
       sodipodi:sides="6"
       sodipodi:cx="270.09265"
       sodipodi:cy="418.96628"
       sodipodi:r1="6.2409444"
       sodipodi:r2="3.1204722"
       sodipodi:arg1="0.94068192"
       sodipodi:arg2="1.4642807"
       inkscape:rounded="0"
       inkscape:randomized="0"
       transform="matrix(0.26458333,0,0,0.26458333,67.377504,31.300196)"
       inkscape:transform-center-y="-1.3965543e-06"
       d="m 273.77005,424.00871 -3.34565,-1.93964 -2.85993,2.60314 0.007,-3.86723 -3.68435,-1.1752 3.3526,-1.92759 -0.82443,-3.77835 3.34565,1.93965 2.85993,-2.60315 -0.007,3.86724 3.68436,1.1752 -3.35261,1.92759 z"
       inkscape:export-filename="/home/chuxclub/projects/wip/2021_m1csa_misc_logo/logo3.png"
       inkscape:export-xdpi="96"
       inkscape:export-ydpi="96" />
    <path
       sodipodi:type="star"
       style="fill:#ffffff;stroke:none"
       id="path11948-0-7"
       inkscape:flatsided="false"
       sodipodi:sides="6"
       sodipodi:cx="270.09265"
       sodipodi:cy="418.96628"
       sodipodi:r1="6.2409444"
       sodipodi:r2="3.1204722"
       sodipodi:arg1="0.94068192"
       sodipodi:arg2="1.4642807"
       inkscape:rounded="0"
       inkscape:randomized="0"
       transform="matrix(0.26458333,0,0,0.26458333,60.67387,3.7784024)"
       inkscape:transform-center-y="-1.3965543e-06"
       d="m 273.77005,424.00871 -3.34565,-1.93964 -2.85993,2.60314 0.007,-3.86723 -3.68435,-1.1752 3.3526,-1.92759 -0.82443,-3.77835 3.34565,1.93965 2.85993,-2.60315 -0.007,3.86724 3.68436,1.1752 -3.35261,1.92759 z"
       inkscape:export-filename="/home/chuxclub/projects/wip/2021_m1csa_misc_logo/logo3.png"
       inkscape:export-xdpi="96"
       inkscape:export-ydpi="96" />
    <path
       sodipodi:type="star"
       style="fill:#ffffff;stroke:none"
       id="path11948-2"
       inkscape:flatsided="false"
       sodipodi:sides="6"
       sodipodi:cx="270.09265"
       sodipodi:cy="418.96628"
       sodipodi:r1="6.2409444"
       sodipodi:r2="3.1204722"
       sodipodi:arg1="0.94068192"
       sodipodi:arg2="1.4642807"
       inkscape:rounded="0"
       inkscape:randomized="0"
       transform="matrix(0.26458333,0,0,0.26458333,-19.007589,29.699465)"
       inkscape:transform-center-y="-1.3965543e-06"
       d="m 273.77005,424.00871 -3.34565,-1.93964 -2.85993,2.60314 0.007,-3.86723 -3.68435,-1.1752 3.3526,-1.92759 -0.82443,-3.77835 3.34565,1.93965 2.85993,-2.60315 -0.007,3.86724 3.68436,1.1752 -3.35261,1.92759 z"
       inkscape:export-filename="/home/chuxclub/projects/wip/2021_m1csa_misc_logo/logo3.png"
       inkscape:export-xdpi="96"
       inkscape:export-ydpi="96" />
    <ellipse
       style="fill:#0b3d91;fill-opacity:1;stroke:#ffffff;stroke-width:0;stroke-miterlimit:4;stroke-dasharray:none;stroke-opacity:1"
       id="path12266-3"
       ry="12.651011"
       rx="41.172001"
       cy="177.08221"
       cx="97.867996"
       clip-path="url(#clipPath12492)"
       transform="translate(0.30513618,-1.0502859)"
       inkscape:export-filename="/home/chuxclub/projects/wip/2021_m1csa_misc_logo/logo3.png"
       inkscape:export-xdpi="96"
       inkscape:export-ydpi="96" />
    <path
       style="fill:none;stroke:none;stroke-width:0.264583px;stroke-linecap:butt;stroke-linejoin:miter;stroke-opacity:1"
       d="m 46.033018,132.14288 c 0,0 2.469815,-18.09042 9.42112,-25.78802 8.247121,-9.132555 17.814302,-18.112515 29.652364,-21.470888 10.20395,-2.894787 21.158318,-2.688187 31.181908,0.37169 7.71812,2.356093 19.65696,9.040147 25.23216,14.874328 3.90449,4.08586 11.42163,19.67779 12.26775,26.37917"
       id="path10675"
       sodipodi:nodetypes="cssssc"
       inkscape:export-filename="/home/chuxclub/projects/wip/2021_m1csa_misc_logo/logo3.png"
       inkscape:export-xdpi="96"
       inkscape:export-ydpi="96" />
    <path
       style="fill:none;stroke:none;stroke-width:0.250384px;stroke-linecap:butt;stroke-linejoin:miter;stroke-opacity:1"
       d="m 87.901821,200.89913 c 0,0 10.042465,0.48613 16.132689,0.31123 7.07455,-0.20315 14.28198,-1.97891 20.62576,-5.26599 7.72881,-4.00473 14.77181,-9.94717 20.12859,-17.0348 4.39806,-5.81913 9.21843,-20.07692 9.21843,-20.07692 v 0"
       id="path24250"
       sodipodi:nodetypes="cssscc"
       inkscape:export-filename="/home/chuxclub/projects/wip/2021_m1csa_misc_logo/logo3.png"
       inkscape:export-xdpi="96"
       inkscape:export-ydpi="96" />
    <path
       style="fill:none;stroke:none;stroke-width:0.264583px;stroke-linecap:butt;stroke-linejoin:miter;stroke-opacity:1"
       d="m 48.390545,178.82815 c 0,0 1.633477,0.9736 7.452645,6.38017 7.408282,6.88301 17.063802,11.71282 26.914637,13.99746 11.618465,2.69459 24.426023,2.83068 35.770403,-0.85097 9.84304,-3.19441 18.5284,-10.03078 25.55529,-17.62766 5.62561,-6.08194 12.47715,-21.49554 12.47715,-21.49554 v 0"
       id="path51596"
       sodipodi:nodetypes="csssscc"
       inkscape:export-filename="/home/chuxclub/projects/wip/2021_m1csa_misc_logo/logo3.png"
       inkscape:export-xdpi="96"
       inkscape:export-ydpi="96" />
    <path
       style="fill:none;stroke:#ffffff;stroke-width:0.5;stroke-linecap:butt;stroke-linejoin:miter;stroke-miterlimit:4;stroke-dasharray:none;stroke-opacity:1"
       d="m 59.698046,171.22473 c 0,0 3.576831,-2.15103 8.25626,-3.73937 4.629457,-1.57137 9.669911,-2.63192 14.369822,-3.19788 5.555389,-0.66898 10.057533,-0.91543 15.534123,-0.89756 4.159259,0.0136 8.111969,0.23 12.253429,0.61464 4.0856,0.37945 7.48112,0.93892 11.45805,1.81716 4.31318,0.95249 6.66972,1.74552 9.48228,2.77907 2.83266,1.04094 5.02094,2.18649 5.02094,2.18649"
       id="path1344"
       sodipodi:nodetypes="cssssssc"
       inkscape:export-filename="/home/chuxclub/projects/wip/2021_m1csa_misc_logo/logo3.png"
       inkscape:export-xdpi="96"
       inkscape:export-ydpi="96" />
  </g>
</svg>
